<svg id="Layer_1" data-name="Layer 1" xmlns="http://www.w3.org/2000/svg" viewBox="0 0 1458 1458"><defs><style>.cls-1{fill:#466dd7;}.cls-1,.cls-2,.cls-3,.cls-6{fill-rule:evenodd;}.cls-2,.cls-4{fill:#2294ff;}.cls-3{fill:#f7944f;}.cls-5,.cls-6{fill:#fff;}</style></defs><path class="cls-1" d="M981.84,657.12c36.1,83,33.94,181.24-14.44,265-2.89,5.78-6.5,11.56-10.11,17.33h0l-.72.73c-62.1,91-167.52,137.91-272.22,127.08l67.87-117L727,935.84l-4.33,4.34L582.54,1099.75c158.85,65,345.87,3.61,434-149.47a348.84,348.84,0,0,0-10.83-367.53c-5.78,25.27-13,50.55-23.83,74.37Zm-413,187L543.55,829.7l-67.88,117a293.87,293.87,0,0,1-26-298.93l.72-.72h0c2.89-6.5,6.5-12.28,9.39-18.06A292.24,292.24,0,0,1,682.18,484.55a406.86,406.86,0,0,1,52.71-58.49c-127.8-7.22-255.61,56.32-324.21,174.74C322.59,753.88,363,946,498.78,1051.37l67.87-201.45a49.92,49.92,0,0,0,2.17-5.78Z"/><path class="cls-2" d="M854,537.26a45.89,45.89,0,0,1,16.6,62.1C858.37,621,830.21,628.24,808.54,616s-28.88-40.44-16.6-62.1A45.9,45.9,0,0,1,854,537.26ZM747.17,839.81c-18,23.83-46.94,36.1-78,39a23,23,0,0,1-22.39-13c-13-28.16-17.33-59.21-5-86.65L500.22,697.56c-9.39-5.78-13.72-15.16-10.83-25.27A21.57,21.57,0,0,1,510.33,655L654,649.9A392.71,392.71,0,0,1,708.9,525c41.16-61.38,99.64-106.87,168.24-134.31A449.67,449.67,0,0,1,927,374.07c12.28-2.89,24.55,4.34,27.44,15.89A405.11,405.11,0,0,1,966,441.23c10.1,73.65-.73,147.3-32.5,213.73-20.22,41.88-48.38,78-80.87,109.75l67.15,126.36c5.06,9.39,3.61,20.22-4.33,27.44-7.22,7.22-18,8-26.72,2.89Z"/><path class="cls-3" d="M535.6,1084.59l153.08-174-17.33,2.17a56.13,56.13,0,0,1-54.88-32.5,107.56,107.56,0,0,1-7.22-15.88Z"/><ellipse class="cls-4" cx="208.73" cy="418.05" rx="160.12" ry="161.32"/><path class="cls-5" d="M291.42,396.19c-21.32,0-35.06,14.45-35.06,34.59,0,21.32,13.5,35.29,36.24,35.29,10.19,0,21.56-3.55,28.43-10.66L310.6,445c-3.79,4-11.6,6.16-17.76,6.16-11.37,0-18.48-5.92-19.66-14h51.64C327.42,409.93,313.68,396.19,291.42,396.19Zm-18,27.48c2.61-8.76,9.72-13,18.48-13,9.48,0,16.11,4.27,17.29,13Z"/><path class="cls-6" d="M212.53,381.27v17.06H200.22v14.21h12.31V441c0,16.59,9.24,24.64,23.69,24.17a33.65,33.65,0,0,0,13.51-2.85l-4.51-14a19.34,19.34,0,0,1-7.81,2.13c-5.21,0-8.77-3.08-8.77-9.48V412.54h18.48V398.33H228.88V379.61Z"/><rect class="cls-5" x="169.55" y="398.09" width="16.34" height="66.33"/><path class="cls-6" d="M168.13,379.61c0,12.79,19.19,12.79,19.19,0s-19.19-12.79-19.19,0Z"/><polygon class="cls-6" points="92.33 370.37 92.33 464.42 158.42 464.42 158.42 448.07 110.1 448.07 110.1 370.37 92.33 370.37"/></svg>