<svg id="Layer_1" data-name="Layer 1" xmlns="http://www.w3.org/2000/svg" viewBox="0 0 1458 1458"><defs><style>.cls-1,.cls-2{fill:#fff;}.cls-1{fill-rule:evenodd;}</style></defs><path class="cls-1" d="M981.84,657.12c36.1,83,33.94,181.24-14.44,265-2.89,5.78-6.5,11.56-10.11,17.33h0l-.72.73c-62.1,91-167.52,137.91-272.22,127.08l67.87-117L727,935.84l-4.33,4.34L582.54,1099.75c158.85,65,345.87,3.61,434-149.47a348.84,348.84,0,0,0-10.83-367.53c-5.78,25.27-13,50.55-23.83,74.37Zm-413,187L543.55,829.7l-67.88,117a293.87,293.87,0,0,1-26-298.93l.72-.72h0c2.89-6.5,6.5-12.28,9.39-18.06A292.24,292.24,0,0,1,682.18,484.55a406.86,406.86,0,0,1,52.71-58.49c-127.8-7.22-255.61,56.32-324.21,174.74C322.59,753.88,363,946,498.78,1051.37l67.87-201.45a49.92,49.92,0,0,0,2.17-5.78Z"/><path class="cls-1" d="M854,537.26a45.89,45.89,0,0,1,16.6,62.1C858.37,621,830.21,628.24,808.54,616s-28.88-40.44-16.6-62.1A45.9,45.9,0,0,1,854,537.26ZM747.17,839.81c-18,23.83-46.94,36.1-78,39a23,23,0,0,1-22.39-13c-13-28.16-17.33-59.21-5-86.65L500.22,697.56c-9.39-5.78-13.72-15.16-10.83-25.27A21.57,21.57,0,0,1,510.33,655L654,649.9A392.71,392.71,0,0,1,708.9,525c41.16-61.38,99.64-106.87,168.24-134.31A449.67,449.67,0,0,1,927,374.07c12.28-2.89,24.55,4.34,27.44,15.89A405.11,405.11,0,0,1,966,441.23c10.1,73.65-.73,147.3-32.5,213.73-20.22,41.88-48.38,78-80.87,109.75l67.15,126.36c5.06,9.39,3.61,20.22-4.33,27.44-7.22,7.22-18,8-26.72,2.89Z"/><path class="cls-1" d="M535.6,1084.59l153.08-174-17.33,2.17a56.13,56.13,0,0,1-54.88-32.5,107.56,107.56,0,0,1-7.22-15.88Z"/><path class="cls-2" d="M208.73,256.73C120.3,256.73,48.61,329,48.61,418.05S120.3,579.36,208.73,579.36s160.13-72.22,160.13-161.31S297.17,256.73,208.73,256.73ZM158.42,464.42H92.33V370.37H110.1v77.7h48.32Zm27.48,0H169.55V398.09H185.9Zm-17.77-84.81c0-12.79,19.19-12.79,19.19,0S168.13,392.4,168.13,379.61Zm68.09,85.52c-14.45.47-23.69-7.58-23.69-24.17V412.54H200.22V398.33h12.31V381.27l16.35-1.66v18.72h18.24v14.21H228.64V441c0,6.4,3.56,9.48,8.77,9.48a19.34,19.34,0,0,0,7.81-2.13l4.51,14A33.65,33.65,0,0,1,236.22,465.13Zm37-28c1.18,8.06,8.29,14,19.66,14,6.16,0,14-2.13,17.76-6.16L321,455.41c-6.87,7.11-18.24,10.66-28.43,10.66-22.74,0-36.24-14-36.24-35.29,0-20.14,13.74-34.59,35.06-34.59,22.26,0,36,13.74,33.4,41Z"/><path class="cls-2" d="M291.89,410.64c-8.76,0-15.87,4.27-18.48,13h35.77C308,414.91,301.37,410.64,291.89,410.64Z"/></svg>